<?xml version="1.0" encoding="UTF-8" standalone="no"?>
<!DOCTYPE svg PUBLIC "-//W3C//DTD SVG 1.1//EN" "http://www.w3.org/Graphics/SVG/1.1/DTD/svg11.dtd">
<svg width="100%" height="100%" viewBox="0 0 423 136" version="1.1" xmlns="http://www.w3.org/2000/svg" xmlns:xlink="http://www.w3.org/1999/xlink" xml:space="preserve" xmlns:serif="http://www.serif.com/" style="fill-rule:evenodd;clip-rule:evenodd;stroke-linejoin:round;stroke-miterlimit:1.41421;">
    <g transform="matrix(1,0,0,1,-380.269,-303.18)">
        <g transform="matrix(1,0,0,1,-1421.68,0)">
            <g transform="matrix(2.89659,0,0,3.23347,1561.77,21.8923)">
                <text x="84.103px" y="126.061px" style="font-family:'HelveticaNeue', 'Helvetica Neue';font-size:14px;fill:rgb(68,86,98);fill-opacity:0.643137;">heating oil daily pricing</text>
            </g>
        </g>
        <g transform="matrix(1,0,0,1,-1421.68,0)">
            <g transform="matrix(1.77536,0,0,1.76226,1534.99,75.0739)">
                <path d="M171.209,138.043C175.074,144.075 180.259,151.977 180.457,156.728C180.806,165.072 173.674,171.503 165.336,171.849C156.817,172.202 150.484,163.987 150.367,156.416C150.331,154.064 151.989,150.038 154.274,145.918C158.689,137.961 165.283,129.326 165.407,129.44L168.265,133.57C168.265,133.57 156.288,149.42 155.802,154.915C155.341,160.135 157.756,166.672 165.352,166.54C170.343,166.453 176.586,162.002 174.87,153.695C174.224,150.565 168.156,142.569 168.156,142.569L171.209,138.043Z" style="fill:rgb(68,86,98);"/>
            </g>
        </g>
        <g transform="matrix(1,0,0,1,-1421.68,0)">
            <g transform="matrix(1.96664,0,0,2.0003,1501.24,37.6892)">
                <path d="M166.34,153.315C167.386,151.43 169.477,151.43 170.523,152.372C171.569,153.315 171.569,155.2 170.523,157.084C169.791,158.498 167.909,159.912 166.34,160.854C164.771,159.912 162.889,158.498 162.157,157.084C161.111,155.2 161.111,153.315 162.157,152.372C163.203,151.43 165.294,151.43 166.34,153.315Z" style="fill:rgb(232,43,137);"/>
            </g>
        </g>
        <g transform="matrix(1,0,0,1,-1421.68,0)">
            <g transform="matrix(1.55699,0,0,1.62251,1577.2,123.769)">
                <text x="199.661px" y="155.808px" style="font-family:'HelveticaNeue-Bold', 'Helvetica Neue';font-weight:700;font-size:49.083px;fill:rgb(232,43,137);stroke:rgb(232,43,137);stroke-width:0.63px;">EXSWIFT</text>
            </g>
        </g>
    </g>
</svg>
